<svg width="512" height="512" viewBox="0 0 512 512" fill="none" xmlns="http://www.w3.org/2000/svg">
  <g clip-path="url(#clip0_961_21585)">
    <path fill-rule="evenodd" clip-rule="evenodd"
      d="M256 512C397.385 512 512 397.385 512 256C512 114.615 397.385 0 256 0C114.615 0 0 114.615 0 256C0 397.385 114.615 512 256 512ZM256 361.84C314.454 361.84 361.84 314.454 361.84 256C361.84 197.546 314.454 150.16 256 150.16C197.546 150.16 150.16 197.546 150.16 256C150.16 314.454 197.546 361.84 256 361.84Z"
      fill="url(#paint0_radial_961_21585)" />
    <path fill-rule="evenodd" clip-rule="evenodd"
      d="M256 361.84C314.454 361.84 361.84 314.454 361.84 256C361.84 197.546 314.454 150.16 256 150.16C197.546 150.16 150.16 197.546 150.16 256C150.16 314.454 197.546 361.84 256 361.84ZM256 319.504C291.072 319.504 319.504 291.072 319.504 256C319.504 220.928 291.072 192.496 256 192.496C220.928 192.496 192.496 220.928 192.496 256C192.496 291.072 220.928 319.504 256 319.504Z"
      fill="#C7B8AF" />
    <path fill-rule="evenodd" clip-rule="evenodd"
      d="M220.941 146.852C223.367 127.228 236.685 82.9513 270.554 62.8417C268.569 89.9631 272.869 113.116 296.683 130.976C295.029 122.818 293.574 101.341 300.983 80.7022C310.244 54.9037 308.259 53.5807 306.936 42.0045C305.613 30.4283 295.691 15.8753 280.807 10.914C292.449 5.88665 318.071 13.2293 329.427 17.529C341.996 23.3722 370.705 38.6968 384.993 53.2498C402.854 71.441 413.438 89.6322 417.076 101.539C423.029 100.878 420.383 65.8182 417.076 61.5185C429.975 69.1257 459.742 104.516 468.342 119.069C476.941 133.622 495.133 165.374 503.401 205.394C511.67 245.415 506.709 286.428 505.055 298.004C503.401 309.581 493.479 347.617 479.918 372.754C466.357 397.891 450.812 416.082 442.874 425.674C434.936 435.265 405.5 462.717 371.763 480.247C353.241 480.578 268.9 458.418 233.179 368.454C297.741 378.773 337.916 341.002 349.934 320.826C365.148 299.548 386.448 243.828 349.934 191.172C304.394 125.503 235.477 143.133 221.039 146.827L220.941 146.852ZM256.332 105.839C251.04 110.073 246.85 124.361 245.417 130.976C249.915 129.918 259.639 130.535 263.939 130.976C261.072 126.015 255.538 114.041 256.332 105.839ZM317.52 102.531C311.699 119.995 317.961 140.457 321.82 148.506C380.826 186.079 385.434 248.171 380.363 274.521C381.906 275.513 386.118 276.902 390.616 274.521C395.379 283.253 383.56 288.082 377.055 289.405C375.291 298.225 367.397 320.495 349.934 339.017C410.461 358.531 479.918 328.433 490.171 317.188C491.494 309.911 493.479 311.234 497.117 262.283C500.028 223.123 486.202 180.919 478.926 164.712C471.649 147.734 453.127 110.8 437.251 98.8932C437.913 109.808 421.376 142.883 410.13 140.568C405.896 111.462 382.127 82.3557 370.771 71.441C362.723 63.8337 342.326 46.5025 325.127 38.0353C332.735 60.5262 324.797 80.7022 317.52 102.531ZM284.776 377.053C282.13 379.17 271.326 380.14 266.254 380.361C302.637 451.803 381.355 460.071 387.308 457.756C392.071 455.904 405.61 444.637 411.784 439.234C407.925 439.786 395.974 440.425 379.04 438.573C326.12 429.973 294.699 393.591 284.776 377.053ZM299.329 377.715C304.092 386.182 319.174 399.324 326.12 404.836C327.002 405.057 328.435 404.969 327.112 402.852C316.528 383.338 316.859 365.146 315.205 365.477C313.551 365.808 296.683 372.754 299.329 377.715ZM336.042 407.152C327.046 398.155 322.371 374.518 321.158 363.823C320.938 363.493 320.96 362.633 322.812 361.839C325.987 360.781 334.94 353.901 339.019 350.593C342.326 351.586 349.272 353.703 350.595 354.232C352.249 354.893 364.487 358.862 359.525 363.823C344.443 378.641 339.129 398.442 338.357 406.49C338.027 407.372 337.101 408.739 336.042 407.152ZM344.311 411.451C343.253 390.813 359.966 370.218 368.456 362.5C368.786 362.28 369.514 362.236 369.779 363.823C372.402 389.077 387.709 416.282 390.869 421.897L390.947 422.035C393.328 426.269 382.237 426.225 376.394 425.674C366.03 423.799 345.105 418.331 344.311 411.451ZM381.024 384.661C376.791 374.341 376.394 366.469 376.724 363.823C376.773 361.442 380.052 359.744 381.686 359.193C390.836 358.311 410.328 357.076 415.091 359.193C421.045 361.839 414.761 379.699 411.784 391.276C408.807 402.852 401.531 418.066 400.538 421.043C399.745 423.424 398.664 422.697 398.223 422.035C398.003 420.823 396.966 417.537 394.585 414.097C391.608 409.798 386.316 397.56 381.024 384.661ZM424.352 363.823C423.558 377.053 413.217 406.821 408.146 420.051C405.83 431.296 426.668 424.681 430.306 422.035C433.944 419.389 446.843 403.513 451.474 396.568C445.653 384.131 433.393 369.115 427.991 363.162C426.668 361.839 424.088 360.119 424.352 363.823ZM433.613 359.524C441.022 367.991 450.812 384.22 454.781 391.276C458.089 387.968 464.704 376.723 465.696 374.407C466.688 372.092 467.019 365.146 467.35 354.893C467.614 346.691 462.388 345.742 459.742 346.294C453.899 347.947 441.485 351.453 438.574 352.247C434.936 353.239 430.637 355.224 433.613 359.524ZM471.98 349.932V359.524C471.98 360.736 472.245 362.765 473.303 361.177C474.362 359.59 475.508 356.326 475.949 354.893C475.839 354.011 475.288 351.652 473.965 349.27C472.642 346.889 472.09 348.719 471.98 349.932ZM482.564 337.363C479.587 338.907 474.758 342.854 479.257 346.294C481.903 343.317 482.233 337.694 482.564 337.363Z"
      fill="black" />
    <path fill-rule="evenodd" clip-rule="evenodd"
      d="M321.82 148.506C317.961 140.457 311.699 119.995 317.52 102.531C324.797 80.7022 332.735 60.5262 325.127 38.0353C342.326 46.5025 362.723 63.8337 370.771 71.441C382.127 82.3557 405.896 111.462 410.13 140.568C421.376 142.883 437.913 109.808 437.251 98.8932C453.127 110.8 471.649 147.734 478.926 164.712C486.202 180.919 500.028 223.123 497.117 262.283C493.479 311.234 491.494 309.911 490.171 317.188C479.918 328.433 410.461 358.531 349.934 339.017C367.397 320.495 375.291 298.225 377.055 289.405C383.56 288.082 395.379 283.253 390.616 274.521C386.118 276.902 381.906 275.513 380.363 274.521C385.434 248.171 380.826 186.079 321.82 148.506ZM472.972 271.875C478.529 264.202 479.477 248.392 479.257 241.446C479.241 238.139 483.556 236.816 486.533 236.154C489.51 235.493 495.133 233.839 491.825 232.847C485.872 231.193 476.941 230.201 466.027 237.808C455.112 245.415 442.543 256.661 434.936 264.929C427.329 273.198 411.122 269.56 408.476 268.898C405.83 268.237 401.861 268.568 403.184 271.875C404.507 275.183 419.391 286.759 433.944 280.475C441.088 290 451.915 288.633 456.435 286.759C459.632 284.995 467.416 279.548 472.972 271.875Z"
      fill="url(#paint1_radial_961_21585)" />
    <path
      d="M245.417 130.976C246.85 124.361 251.04 110.073 256.332 105.839C255.538 114.041 261.072 126.015 263.939 130.976C259.639 130.535 249.915 129.918 245.417 130.976Z"
      fill="#45EA2C" />
    <path
      d="M266.254 380.361C271.326 380.14 282.13 379.17 284.776 377.053C294.699 393.591 326.12 429.973 379.04 438.573C395.974 440.425 407.925 439.786 411.784 439.234C405.61 444.637 392.071 455.904 387.308 457.756C381.355 460.071 302.637 451.803 266.254 380.361Z"
      fill="#45EA2C" />
    <path
      d="M326.12 404.836C319.174 399.324 304.092 386.182 299.329 377.715C296.683 372.754 313.551 365.808 315.205 365.477C316.859 365.146 316.528 383.338 327.112 402.852C328.435 404.969 327.002 405.057 326.12 404.836Z"
      fill="white" />
    <path
      d="M321.158 363.823C322.371 374.518 327.046 398.155 336.042 407.152C337.101 408.739 338.027 407.372 338.357 406.49C339.129 398.442 344.443 378.641 359.525 363.823C364.487 358.862 352.249 354.893 350.595 354.232C349.272 353.703 342.326 351.586 339.019 350.593C334.94 353.901 325.987 360.781 322.812 361.839C320.96 362.633 320.938 363.493 321.158 363.823Z"
      fill="white" />
    <path
      d="M368.456 362.5C359.966 370.218 343.253 390.813 344.311 411.451C345.105 418.331 366.03 423.799 376.394 425.674C382.237 426.225 393.328 426.269 390.947 422.035L390.869 421.897C387.709 416.282 372.402 389.077 369.779 363.823C369.514 362.236 368.786 362.28 368.456 362.5Z"
      fill="white" />
    <path
      d="M376.724 363.823C376.394 366.469 376.791 374.341 381.024 384.661C386.316 397.56 391.608 409.798 394.585 414.097C396.966 417.537 398.003 420.823 398.223 422.035C398.664 422.697 399.745 423.424 400.538 421.043C401.531 418.066 408.807 402.852 411.784 391.276C414.761 379.699 421.045 361.839 415.091 359.193C410.328 357.076 390.836 358.311 381.686 359.193C380.052 359.744 376.773 361.442 376.724 363.823Z"
      fill="white" />
    <path
      d="M408.146 420.051C413.217 406.821 423.558 377.053 424.352 363.823C424.088 360.119 426.668 361.839 427.991 363.162C433.393 369.115 445.653 384.131 451.474 396.568C446.843 403.513 433.944 419.389 430.306 422.035C426.668 424.681 405.83 431.296 408.146 420.051Z"
      fill="white" />
    <path
      d="M454.781 391.276C450.812 384.22 441.022 367.991 433.613 359.524C430.637 355.224 434.936 353.239 438.574 352.247C441.485 351.453 453.899 347.947 459.742 346.294C462.388 345.742 467.614 346.691 467.35 354.893C467.019 365.146 466.688 372.092 465.696 374.407C464.704 376.723 458.089 387.968 454.781 391.276Z"
      fill="white" />
    <path
      d="M482.564 337.363C479.587 338.907 474.758 342.854 479.257 346.294C481.903 343.317 482.233 337.694 482.564 337.363Z"
      fill="white" />
    <path
      d="M471.98 359.524V349.932C472.09 348.719 472.642 346.889 473.965 349.27C475.288 351.652 475.839 354.011 475.949 354.893C475.508 356.326 474.362 359.59 473.303 361.177C472.245 362.765 471.98 360.736 471.98 359.524Z"
      fill="white" />
    <path
      d="M468.011 252.03C462.829 256.661 450.945 267.642 444.859 274.521C442.543 275.183 444.859 276.836 445.52 276.836C446.182 276.836 456.815 279.082 462.388 271.214C468.011 263.276 469.665 257.653 469.665 252.692C469.93 251.369 468.673 251.699 468.011 252.03Z"
      fill="white" />
    <path fill-rule="evenodd" clip-rule="evenodd"
      d="M479.257 241.446C479.477 248.392 478.529 264.202 472.972 271.875C467.416 279.548 459.632 284.995 456.435 286.759C451.915 288.633 441.088 290 433.944 280.475C419.391 286.759 404.507 275.183 403.184 271.875C401.861 268.568 405.83 268.237 408.476 268.898C411.122 269.56 427.329 273.198 434.936 264.929C442.543 256.661 455.112 245.415 466.027 237.808C476.941 230.201 485.872 231.193 491.825 232.847C495.133 233.839 489.51 235.493 486.533 236.154C483.556 236.816 479.241 238.139 479.257 241.446ZM444.859 274.521C450.945 267.642 462.829 256.661 468.011 252.03C468.673 251.699 469.93 251.369 469.665 252.692C469.665 257.653 468.011 263.276 462.388 271.214C456.815 279.082 446.182 276.836 445.52 276.836C444.859 276.836 442.543 275.183 444.859 274.521Z"
      fill="black" />
  </g>
  <defs>
    <radialGradient id="paint0_radial_961_21585" cx="0" cy="0" r="1" gradientUnits="userSpaceOnUse"
      gradientTransform="translate(256 256) rotate(90) scale(256)">
      <stop stop-color="#D4CAC5" />
      <stop offset="0.438406" stop-color="#D2CBC2" />
      <stop offset="0.675111" stop-color="#FDFCFD" />
      <stop offset="0.780873" stop-color="#FDFCFD" />
      <stop offset="1" stop-color="#BBB8B0" />
    </radialGradient>
    <radialGradient id="paint1_radial_961_21585" cx="0" cy="0" r="1" gradientUnits="userSpaceOnUse"
      gradientTransform="translate(-11 245) scale(535 326.093)">
      <stop stop-color="#45EA2C" />
      <stop offset="0.783505" stop-color="#45EA2C" />
      <stop offset="1" stop-color="#278419" />
    </radialGradient>
    <clipPath id="clip0_961_21585">
      <rect width="512" height="512" fill="white" />
    </clipPath>
  </defs>
</svg>