<svg width="2500" height="2500" viewBox="0 0 2500 2500" fill="none" xmlns="http://www.w3.org/2000/svg">
<path fill-rule="evenodd" clip-rule="evenodd" d="M1828.5 947.584L1924.48 966.779L1972.48 985.975L2001.29 1005.18L2010.88 1024.37L2015.67 1067.58L2010.88 1077.18L2030.07 1106L2020.47 1120.38L2015.68 1125.19L2020.47 1149.17V1206.8L2001.29 1264.4L1982.1 1293.2L1962.88 1326.82L1919.67 1360.41L1886.07 1394.03L1881.26 1403.63H1871.69L1833.26 1422.82L1814.04 1442.02L1809.28 1466.01L1785.29 1461.2L1746.83 1470.82L1698.86 1490.02H1612.45C1554.85 1490.02 1516.42 1475.61 1497.22 1451.61L1454 1403.61L1425.25 1370C1401.23 1346 1386.79 1317.21 1386.79 1283.59L1396.41 1240.39L1386.79 1201.99V1197.16L1420.41 1144.37L1415.65 1134.78L1449.24 1120.38L1482.83 1091.59L1487.64 1067.58L1511.66 1072.37L1526.05 1067.58L1554.85 1048.39L1574.04 1024.38L1578.87 1009.98L1598.06 990.773L1612.46 1000.38L1641.24 990.773H1646.06L1674.86 957.182L1689.27 961.98L1775.68 947.597L1828.5 947.584ZM1146.79 1566.84L1180.39 1533.25L1238 1490.03H1286L1300.39 1518.84L1295.63 1533.25L1324.43 1576.44L1314.81 1624.41L1324.43 1691.67V1686.86L1310 1754.04L1300.4 1792.47L1276.41 1773.28C1252.42 1758.89 1233.19 1730.06 1223.59 1691.69L1194.8 1672.46H1185.23L1151.65 1682.06L1118.01 1701.24L1084.4 1725.29H1065.21V1720.48L1055.61 1739.7L1012.39 1720.48L1050.8 1662.88L1074.79 1643.68L1108.43 1600.49L1132.41 1576.47L1137.17 1566.88H1146.79V1566.84ZM1113.19 1086.79C1137.17 1091.59 1151.64 1105.98 1156.4 1125.19L1189.99 1163.6L1194.8 1192.39V1206.8L1185.23 1235.59L1156.4 1297.99L1151.64 1307.61V1326.81L1142.01 1331.62L1084.4 1370L1093.97 1374.81V1394C1093.97 1418 1074.79 1437.19 1036.39 1442L1022.02 1446.82H1017.18L868.389 1485.22L781.972 1461.17L700.366 1466.01L657.164 1446.83C633.157 1432.39 613.948 1422.81 599.565 1427.63L551.564 1413.22H537.154V1394.03L522.758 1370.01L513.147 1360.41L503.55 1269.2L508.362 1235.6L498.751 1202L503.55 1177.99L513.147 1163.61V1158.8L537.154 1106L546.765 1072.37V1057.98L599.565 995.572L609.163 985.975L623.559 990.773C628.358 990.773 637.942 985.975 652.365 981.176L657.164 971.591H685.97L748.38 966.779L762.776 952.383L777.173 966.779L796.355 971.591L849.181 1000.38H873.162L925.988 1014.78L964.379 1019.58L969.19 1005.2H988.386L1069.99 1029.18L1093.97 1053.2L1089.21 1067.61L1093.97 1077.2L1113.19 1086.79ZM945.183 366.72L935.573 376.305L868.376 381.117L796.342 400.312L772.361 424.319L738.743 448.326L676.333 486.742L599.539 539.529C599.539 558.725 589.941 568.348 565.934 573.134L556.324 577.92L522.732 616.323L436.302 707.54L417.119 755.541C393.112 784.347 383.515 808.354 388.326 832.348L402.723 861.154V865.952C397.924 880.362 388.326 889.959 373.917 904.356L364.319 913.94V923.551L397.924 933.149L364.319 966.753L345.137 990.747L340.325 995.546V1009.96L335.514 1014.75L325.916 1062.77L321.117 1129.98L330.728 1177.97V1197.15L340.325 1221.17L345.137 1235.56L335.514 1249.97L321.117 1283.57V1288.38L330.728 1312.37L325.916 1331.59V1345.98L330.728 1350.76L335.514 1360.36V1369.96L349.923 1389.15C364.319 1403.56 369.131 1417.96 369.131 1432.34V1441.97L364.319 1461.15L345.137 1456.39L330.728 1461.15L297.123 1470.77H311.532L292.324 1489.97L282.727 1504.35L340.325 1528.37L373.93 1547.55L417.132 1557.18L460.335 1561.96H465.146L508.362 1576.37C541.953 1576.37 570.772 1585.94 589.967 1605.18H599.565L633.157 1614.8C647.566 1614.8 666.761 1624.35 685.97 1638.77L700.366 1648.46H753.166L777.173 1682.05L781.985 1686.86C810.791 1710.85 834.785 1739.67 858.779 1773.27L873.175 1797.26L849.194 1806.88H796.368L777.186 1802.07L772.4 1821.25L781.998 1888.49L777.186 1912.48L772.4 1922.08L767.588 1926.89L757.991 1950.89V1979.72C767.588 1994.08 772.4 2008.52 772.4 2032.48V2061.27L753.153 2114.07L757.965 2171.7L844.369 2133.29L863.565 2114.07L940.371 2061.26L959.567 2056.5L1017.15 2037.3L1036.36 2042.09L1041.17 2128.52L1055.58 2190.89L1065.18 2195.7H1069.95C1093.93 2190.89 1117.97 2166.92 1151.61 2118.9V2104.49C1156.37 2075.68 1170.78 2056.51 1189.96 2046.91H1209.18L1218.79 2066.1L1233.16 2090.12L1228.4 2094.93L1252.39 2152.5H1266.77L1309.96 2147.72L1319.58 2133.33V2099.74C1319.58 2075.69 1329.18 2061.28 1343.58 2046.93C1343.58 2027.71 1353.17 2013.31 1367.6 1998.9V1994.09C1386.78 1989.3 1406 1994.09 1429.99 2018.13L1439.59 2027.71V2032.49L1463.58 2070.92L1473.21 2090.12L1492.43 2075.71L1526.02 2037.33L1559.61 1989.3L1564.42 1979.73C1569.21 1960.54 1578.83 1950.9 1593.2 1946.09L1607.61 1941.3L1617.21 1950.9L1698.83 2046.93L1718.03 2013.31L1722.81 2003.71V1998.9L1713.21 1984.49L1698.83 1950.9V1941.3L1703.62 1931.73L1718.03 1907.68V1893.33L1722.81 1864.49L1708.45 1816.52L1703.62 1806.92L1708.45 1797.3L1718.03 1773.3L1708.45 1706.07V1701.26L1718.03 1691.71C1732.44 1667.67 1746.81 1658.09 1761.24 1658.09L1794.83 1648.5L1823.61 1638.87L1857.2 1624.46H1862.07L1871.67 1619.7H1881.24L1977.21 1581.27L1982.08 1576.49H1986.81C2010.86 1576.49 2034.84 1566.89 2063.64 1542.87L2078.03 1533.3H2087.65C2102.06 1533.3 2116.46 1514.08 2130.87 1480.49L2140.41 1466.08L2130.87 1451.69L2097.22 1413.29V1408.5C2097.22 1389.28 2106.82 1370.07 2130.87 1350.88L2154.83 1312.48L2183.64 1221.27L2217.23 1110.86V1034.05L2207.69 990.838L2193.28 1000.45L2174.06 981.254H2169.3L2164.48 957.246L2174.06 933.239V928.454L2164.48 904.434V866.03L2159.67 832.425L2145.31 779.626L2150.07 765.229L2130.89 741.222C2106.85 726.826 2097.25 707.617 2097.25 683.61V669.201L2087.68 659.603C2073.27 645.22 2063.66 630.798 2063.66 616.401V611.615L2049.27 582.809V587.621L1991.7 506.015L1986.84 501.204L1919.65 453.19L1866.84 424.397L1751.68 376.383L1665.25 347.59L1631.66 337.979L1511.64 328.382H1506.8L1468.45 333.167L1386.78 323.57L1343.59 304.375L1285.99 309.16L1194.79 313.959L1156.38 318.771L1108.41 333.154L1093.95 342.778L1079.58 323.57H1041.19L988.373 342.778L945.183 366.72Z" fill="white"/>
</svg>
