<svg width="199" height="30" viewBox="0 0 199 30" fill="none" xmlns="http://www.w3.org/2000/svg">
  <path d="M0.5 30C0.223858 30 0 29.7761 0 29.5V0.5C0 0.223857 0.223858 0 0.5 0H5.5C5.77614 0 6 0.223858 6 0.5V11.5C6 11.7761 6.22386 12 6.5 12H11.5C11.7761 12 12 11.7761 12 11.5V0.5C12 0.223858 12.2239 0 12.5 0H17.5C17.7761 0 18 0.223858 18 0.5V29.5C18 29.7761 17.7761 30 17.5 30H12.5C12.2239 30 12 29.7761 12 29.5V18.5C12 18.2239 11.7761 18 11.5 18H6.5C6.22386 18 6 18.2239 6 18.5V29.5C6 29.7761 5.77614 30 5.5 30H0.5Z" fill="black"/>
  <path d="M24.5 0C24.2239 0 24 0.223858 24 0.5V23.7929C24 23.9255 24.0527 24.0527 24.1464 24.1464L29.8536 29.8536C29.9473 29.9473 30.0745 30 30.2071 30H35.7929C35.9255 30 36.0527 29.9473 36.1464 29.8536L41.8536 24.1464C41.9473 24.0527 42 23.9255 42 23.7929V0.5C42 0.223857 41.7761 0 41.5 0H36.5C36.2239 0 36 0.223858 36 0.5V20.7929C36 20.9255 35.9473 21.0527 35.8536 21.1464L33.3536 23.6464C33.1583 23.8417 32.8417 23.8417 32.6464 23.6464L30.1464 21.1464C30.0527 21.0527 30 20.9255 30 20.7929V0.500001C30 0.223858 29.7761 0 29.5 0H24.5Z" fill="black"/>
  <path d="M97.5 30C97.2239 30 97 29.7761 97 29.5V0.5C97 0.223857 97.2239 0 97.5 0H102.5C102.776 0 103 0.223858 103 0.5V29.5C103 29.7761 102.776 30 102.5 30H97.5Z" fill="black"/>
  <path d="M115.207 30C115.074 30 114.947 29.9473 114.854 29.8536L109.146 24.1464C109.053 24.0527 109 23.9255 109 23.7929V5.20711C109 5.0745 109.053 4.94732 109.146 4.85355L113.854 0.146446C113.947 0.052678 114.074 0 114.207 0H120.793C120.926 0 121.053 0.0526784 121.146 0.146447L126.854 5.85355C126.947 5.94732 127 6.0745 127 6.20711V11.5C127 11.7761 126.776 12 126.5 12H121.5C121.224 12 121 11.7761 121 11.5V9.20711C121 9.0745 120.947 8.94732 120.854 8.85355L118.146 6.14645C118.053 6.05268 117.926 6 117.793 6H117.207C117.074 6 116.947 6.05268 116.854 6.14645L115.146 7.85355C115.053 7.94732 115 8.0745 115 8.20711V21.7929C115 21.9255 115.053 22.0527 115.146 22.1464L116.854 23.8536C116.947 23.9473 117.074 24 117.207 24H117.793C117.926 24 118.053 23.9473 118.146 23.8536L120.854 21.1464C120.947 21.0527 121 20.9255 121 20.7929V18.5C121 18.2239 121.224 18 121.5 18H126.5C126.776 18 127 18.2239 127 18.5V23.7929C127 23.9255 126.947 24.0527 126.854 24.1464L121.146 29.8536C121.053 29.9473 120.926 30 120.793 30H115.207Z" fill="black"/>
  <path fill-rule="evenodd" clip-rule="evenodd" d="M133.5 30C133.224 30 133 29.7761 133 29.5V6.20711C133 6.0745 133.053 5.94732 133.146 5.85355L138.854 0.146446C138.947 0.0526783 139.074 0 139.207 0H144.793C144.926 0 145.053 0.0526784 145.146 0.146447L150.854 5.85355C150.947 5.94732 151 6.0745 151 6.20711V29.5C151 29.7761 150.776 30 150.5 30H145.5C145.224 30 145 29.7761 145 29.5V18.5C145 18.2239 144.776 18 144.5 18H139.5C139.224 18 139 18.2239 139 18.5V29.5C139 29.7761 138.776 30 138.5 30H133.5ZM139.146 7.85355C139.053 7.94732 139 8.0745 139 8.20711V11.5C139 11.7761 139.224 12 139.5 12H144.5C144.776 12 145 11.7761 145 11.5V8.20711C145 8.0745 144.947 7.94732 144.854 7.85355L143.146 6.14645C143.053 6.05268 142.926 6 142.793 6H141.207C141.074 6 140.947 6.05268 140.854 6.14645L139.146 7.85355Z" fill="black"/>
  <path d="M157.5 30C157.224 30 157 29.7761 157 29.5V0.5C157 0.223857 157.224 0 157.5 0H169.793C169.926 0 170.053 0.0526784 170.146 0.146447L174.854 4.85355C174.947 4.94732 175 5.0745 175 5.20711V29.5C175 29.7761 174.776 30 174.5 30H169.5C169.224 30 169 29.7761 169 29.5V8.20711C169 8.0745 168.947 7.94732 168.854 7.85355L167.146 6.14645C167.053 6.05268 166.926 6 166.793 6H163.5C163.224 6 163 6.22386 163 6.5V29.5C163 29.7761 162.776 30 162.5 30H157.5Z" fill="black"/>
  <path fill-rule="evenodd" clip-rule="evenodd" d="M198.646 23.6464C198.842 23.8417 198.842 24.1583 198.646 24.3536L193.146 29.8536C193.053 29.9473 192.926 30 192.793 30H187.207C187.074 30 186.947 29.9473 186.854 29.8536L181.146 24.1464C181.053 24.0527 181 23.9255 181 23.7929V6.20711C181 6.0745 181.053 5.94732 181.146 5.85355L186.854 0.146446C186.947 0.0526783 187.074 0 187.207 0H193.793C193.926 0 194.053 0.0526784 194.146 0.146447L198.854 4.85355C198.947 4.94732 199 5.0745 199 5.20711V11.7929C199 11.9255 198.947 12.0527 198.854 12.1464L193.146 17.8536C193.053 17.9473 192.926 18 192.793 18H187.5C187.224 18 187 18.2239 187 18.5V20.7929C187 20.9255 187.053 21.0527 187.146 21.1464L189.854 23.8536C189.947 23.9473 190.074 24 190.207 24H190.793C190.926 24 191.053 23.9473 191.146 23.8536L194.646 20.3536C194.842 20.1583 195.158 20.1583 195.354 20.3536L198.646 23.6464ZM187 11.5C187 11.7761 187.224 12 187.5 12H190.793C190.926 12 191.053 11.9473 191.146 11.8536L193.646 9.35355C193.842 9.15829 193.842 8.84171 193.646 8.64645L191.146 6.14645C191.053 6.05268 190.926 6 190.793 6H189.207C189.074 6 188.947 6.05268 188.854 6.14645L187.146 7.85355C187.053 7.94732 187 8.0745 187 8.20711V11.5Z" fill="black"/>
  <path fill-rule="evenodd" clip-rule="evenodd" d="M72.5 30C72.2239 30 72 29.7761 72 29.5V6.20711C72 6.0745 72.0527 5.94732 72.1464 5.85355L77.8536 0.146446C77.9473 0.0526783 78.0745 0 78.2071 0H84.7929C84.9255 0 85.0527 0.0526784 85.1464 0.146447L90.8536 5.85355C90.9473 5.94732 91 6.0745 91 6.20711V10.7929C91 10.9255 90.9473 11.0527 90.8536 11.1464L87.8536 14.1464C87.6583 14.3417 87.6583 14.6583 87.8536 14.8536L90.8536 17.8536C90.9473 17.9473 91 18.0745 91 18.2071V29.5C91 29.7761 90.7761 30 90.5 30H85.5C85.2239 30 85 29.7761 85 29.5V21.2071C85 21.0745 84.9473 20.9473 84.8536 20.8536L82.1464 18.1464C82.0527 18.0527 81.9255 18 81.7929 18H78.5C78.2239 18 78 18.2239 78 18.5V29.5C78 29.7761 77.7761 30 77.5 30H72.5ZM78.1464 7.85355C78.0527 7.94732 78 8.0745 78 8.20711V11.5C78 11.7761 78.2239 12 78.5 12H81.7929C81.9255 12 82.0527 11.9473 82.1464 11.8536L83.8536 10.1464C83.9473 10.0527 84 9.9255 84 9.79289V8.20711C84 8.0745 83.9473 7.94732 83.8536 7.85355L82.1464 6.14645C82.0527 6.05268 81.9255 6 81.7929 6H80.2071C80.0745 6 79.9473 6.05268 79.8536 6.14645L78.1464 7.85355Z" fill="black"/>
  <path fill-rule="evenodd" clip-rule="evenodd" d="M48.5 30C48.2239 30 48 29.7761 48 29.5V6.20711C48 6.0745 48.0527 5.94732 48.1464 5.85355L53.8536 0.146446C53.9473 0.0526783 54.0745 0 54.2071 0H60.7929C60.9255 0 61.0527 0.0526784 61.1464 0.146447L65.8536 4.85355C65.9473 4.94732 66 5.0745 66 5.20711V11.7929C66 11.9255 65.9473 12.0527 65.8536 12.1464L63.3536 14.6464C63.1583 14.8417 63.1583 15.1583 63.3536 15.3536L65.8536 17.8536C65.9473 17.9473 66 18.0745 66 18.2071V29.5C66 29.7761 65.7761 30 65.5 30H60.5C60.2239 30 60 29.7761 60 29.5V20.2071C60 20.0745 59.9473 19.9473 59.8536 19.8536L58.1464 18.1464C58.0527 18.0527 57.9255 18 57.7929 18H54.5C54.2239 18 54 18.2239 54 18.5V29.5C54 29.7761 53.7761 30 53.5 30H48.5ZM54.1464 7.85355C54.0527 7.94732 54 8.0745 54 8.20711V11.5C54 11.7761 54.2239 12 54.5 12H57.7929C57.9255 12 58.0527 11.9473 58.1464 11.8536L59.8536 10.1464C59.9473 10.0527 60 9.9255 60 9.79289V8.20711C60 8.0745 59.9473 7.94732 59.8536 7.85355L58.1464 6.14645C58.0527 6.05268 57.9255 6 57.7929 6H56.2071C56.0745 6 55.9473 6.05268 55.8536 6.14645L54.1464 7.85355Z" fill="black"/>
</svg>
