<svg width="76" height="98" viewBox="0 0 76 98" fill="none" xmlns="http://www.w3.org/2000/svg">
  <path fill-rule="evenodd" clip-rule="evenodd" d="M23 61V98H52V61H65.5L37.75 14.5L10 61H23ZM29.5 65C30.3284 65 31 64.3284 31 63.5C31 62.6716 30.3284 62 29.5 62C28.6716 62 28 62.6716 28 63.5C28 64.3284 28.6716 65 29.5 65ZM45.5 65C46.3284 65 47 64.3284 47 63.5C47 62.6716 46.3284 62 45.5 62C44.6716 62 44 62.6716 44 63.5C44 64.3284 44.6716 65 45.5 65ZM45.5 85.5C46.3284 85.5 47 84.8284 47 84C47 83.1716 46.3284 82.5 45.5 82.5C44.6716 82.5 44 83.1716 44 84C44 84.8284 44.6716 85.5 45.5 85.5ZM29.5 85.5C30.3284 85.5 31 84.8284 31 84C31 83.1716 30.3284 82.5 29.5 82.5C28.6716 82.5 28 83.1716 28 84C28 84.8284 28.6716 85.5 29.5 85.5Z" fill="white"/>
  <path d="M0 52V98H23V61H10L37.75 14.5L65.5 61H52V98H75.5V52C75.5 52 75.5 0 37.75 0C0 0 0 52 0 52Z" fill="#EB1E23"/>
  <path d="M47 63.5C47 64.3284 46.3284 65 45.5 65C44.6716 65 44 64.3284 44 63.5C44 62.6716 44.6716 62 45.5 62C46.3284 62 47 62.6716 47 63.5Z" fill="black"/>
  <path d="M31 63.5C31 64.3284 30.3284 65 29.5 65C28.6716 65 28 64.3284 28 63.5C28 62.6716 28.6716 62 29.5 62C30.3284 62 31 62.6716 31 63.5Z" fill="black"/>
  <path d="M31 84C31 84.8284 30.3284 85.5 29.5 85.5C28.6716 85.5 28 84.8284 28 84C28 83.1716 28.6716 82.5 29.5 82.5C30.3284 82.5 31 83.1716 31 84Z" fill="black"/>
  <path d="M47 84C47 84.8284 46.3284 85.5 45.5 85.5C44.6716 85.5 44 84.8284 44 84C44 83.1716 44.6716 82.5 45.5 82.5C46.3284 82.5 47 83.1716 47 84Z" fill="black"/>
</svg>
